# xmcd
#
# Track frame offsets:
#	150
#	21655
#	41482
#	61125
#	72821
#	93175
#	110383
#	132187
#	150708
#	178558
#	215007
#	239143
#
# Disc length: 3609 seconds
#
# Revision: 0
# Processed by: cddbd v1.5.2PL0 Copyright (c) Steve Scherf et al.
# Submitted via: EasyCDDAExtractor 10.0.2.1
#
DISCID=a70e170c
DTITLE=Havana Black - Family Collection 1987-2007 [CD2: Our Cover Songs)
DYEAR=2007
DGENRE=Rock and Roll
TTITLE0=Junkie (Live)
TTITLE1=Evil
TTITLE2=Oh Well
TTITLE3=We Are The Roadcrew
TTITLE4=Medicine Man
TTITLE5=Mississippi Queen
TTITLE6=Reap What I've Sowed
TTITLE7=Borderline
TTITLE8=Seagull
TTITLE9=Magic Carpet Ride (Full Version)
TTITLE10=Hassa I Sabha
TTITLE11=Simple Man
EXTD=
EXTT0=
EXTT1=
EXTT2=
EXTT3=
EXTT4=
EXTT5=
EXTT6=
EXTT7=
EXTT8=
EXTT9=
EXTT10=
EXTT11=
PLAYORDER=
